<?xml version="1.0" standalone="no"?><!DOCTYPE svg PUBLIC "-//W3C//DTD SVG 1.1//EN" "http://www.w3.org/Graphics/SVG/1.1/DTD/svg11.dtd"><svg t="1767777018431" class="icon" viewBox="0 0 1024 1024" version="1.1" xmlns="http://www.w3.org/2000/svg" p-id="11041" width="128" height="128" xmlns:xlink="http://www.w3.org/1999/xlink"><path d="M819.2 755.2c-4.266667-59.733333-8.533333-130.133333-78.933333-258.133333-2.133333-4.266667-6.4-8.533333-6.4-10.666667 0-2.133333 0-8.533333 19.2-23.466667 14.933333-12.8 19.2-17.066667 27.733333-17.066666 4.266667 4.266667 10.666667 14.933333 23.466667 36.266666 12.8 23.466667 34.133333 36.266667 61.866666 36.266667 8.533333 0 14.933333 0 23.466667-2.133333 34.133333-8.533333 66.133333-36.266667 66.133333-64 0-14.933333-4.266667-36.266667-8.533333-55.466667-6.4-23.466667-12.8-57.6-8.533333-68.266667 2.133333-12.8 8.533333-21.333333 14.933333-27.733333 6.4-8.533333 12.8-17.066667 14.933333-27.733333v-6.4c-2.133333-32-72.533333-87.466667-151.466666-123.733334-19.2-8.533333-38.4-12.8-55.466667-12.8-59.733333 0-113.066667 42.666667-145.066667 89.6-29.866667 44.8-49.066667 81.066667-68.266666 113.066667-8.533333 12.8-14.933333 27.733333-23.466667 42.666667-14.933333-4.266667-25.6-6.4-57.6-6.4h-23.466667c-68.266667 2.133333-110.933333 23.466667-130.133333 34.133333l-2.133333 2.133333c-10.666667-2.133333-36.266667-4.266667-66.133334-4.266666-74.666667 0-187.733333 12.8-219.733333 78.933333-4.266667 8.533333-6.4 10.666667-12.8 23.466667-12.8 36.266667-2.133333 53.333333 8.533333 64 32 32 74.666667 68.266667 106.666667 68.266666h6.4c12.8-2.133333 21.333333-8.533333 27.733333-21.333333 17.066667-36.266667 51.2-89.6 53.333334-68.266667 4.266667 34.133333-42.666667 115.2-55.466667 238.933334-2.133333 12.8-12.8 21.333333-23.466667 19.2L85.333333 793.6c-6.4-2.133333-12.8-4.266667-19.2-4.266667-12.8 0-25.6 4.266667-36.266666 10.666667-12.8 8.533333-21.333333 23.466667-21.333334 38.4v32c0 21.333333 12.8 38.4 34.133334 46.933333 117.333333 46.933333 275.2 70.4 441.6 70.4 166.4 0 322.133333-23.466667 443.733333-70.4 19.2-6.4 34.133333-25.6 34.133333-46.933333v-32c0-14.933333-8.533333-29.866667-21.333333-38.4-10.666667-6.4-23.466667-10.666667-36.266667-10.666667-6.4 0-12.8 0-19.2 4.266667-10.666667 4.266667-21.333333 10.666667-32 17.066667-12.8 6.4-27.733333-2.133333-27.733333-17.066667l-6.4-38.4z m-334.933333 96c-57.6 0-113.066667-2.133333-166.4-8.533333-14.933333-2.133333-23.466667-19.2-14.933334-32 51.2-76.8 119.466667-121.6 192-121.6 70.4 0 140.8 42.666667 189.866667 119.466666 8.533333 12.8 0 29.866667-14.933333 32-57.6 6.4-121.6 10.666667-185.6 10.666667z m0 0" fill="#FFD7BA" p-id="11042"></path><path d="M524.8 960c-170.666667 0-328.533333-25.6-445.866667-72.533333-23.466667-10.666667-40.533333-32-40.533333-55.466667v-32c0-19.2 10.666667-36.266667 25.6-49.066667 12.8-8.533333 27.733333-12.8 42.666667-12.8 8.533333 0 14.933333 2.133333 23.466666 4.266667l49.066667 8.533333c2.133333 0 4.266667 0 6.4-2.133333 2.133333-2.133333 4.266667-4.266667 4.266667-6.4 6.4-72.533333 25.6-130.133333 38.4-170.666667 6.4-19.2 10.666667-36.266667 14.933333-49.066666-10.666667 12.8-23.466667 36.266667-32 55.466666-8.533333 14.933333-21.333333 25.6-36.266667 25.6h-6.4c-27.733333 0-66.133333-23.466667-113.066666-72.533333-10.666667-8.533333-27.733333-32-10.666667-74.666667 6.4-14.933333 6.4-17.066667 10.666667-25.6 36.266667-70.4 145.066667-85.333333 230.4-85.333333 32 0 55.466667 2.133333 64 2.133333h2.133333c21.333333-10.666667 64-32 132.266667-34.133333 44.8-2.133333 59.733333 0 74.666666 4.266667l6.4-12.8c4.266667-6.4 8.533333-14.933333 10.666667-21.333334l4.266667-10.666666c17.066667-32 36.266667-64 64-104.533334 42.666667-59.733333 100.266667-93.866667 155.733333-93.866666 21.333333 0 40.533333 4.266667 59.733333 14.933333 72.533333 32 153.6 91.733333 157.866667 130.133333v8.533334c-2.133333 14.933333-10.666667 25.6-17.066667 34.133333-6.4 6.4-10.666667 12.8-12.8 23.466667-4.266667 10.666667 4.266667 51.2 8.533334 64 4.266667 21.333333 8.533333 42.666667 8.533333 57.6 0 34.133333-38.4 66.133333-74.666667 74.666666-40.533333 10.666667-76.8-4.266667-98.133333-38.4-4.266667-6.4-12.8-21.333333-17.066667-29.866666-2.133333 2.133333-6.4 4.266667-14.933333 12.8-10.666667 8.533333-14.933333 12.8-14.933333 14.933333 0 2.133333 2.133333 4.266667 4.266666 6.4 72.533333 130.133333 76.8 202.666667 81.066667 260.266667v2.133333l2.133333 36.266667c0 4.266667 2.133333 6.4 4.266667 8.533333 2.133333 0 4.266667 2.133333 8.533333 0l12.8-6.4c6.4-4.266667 14.933333-8.533333 21.333334-10.666667 6.4-2.133333 14.933333-4.266667 23.466666-4.266666 14.933333 0 29.866667 4.266667 42.666667 12.8 17.066667 10.666667 25.6 29.866667 25.6 49.066666v32c0 25.6-17.066667 49.066667-40.533333 55.466667-119.466667 51.2-277.333333 76.8-445.866667 76.8zM106.666667 761.6c-10.666667 0-21.333333 4.266667-32 10.666667s-17.066667 19.2-17.066667 29.866666v32c0 14.933333 10.666667 29.866667 27.733333 36.266667 115.2 42.666667 270.933333 68.266667 437.333334 68.266667 166.4 0 322.133333-25.6 439.466666-70.4 14.933333-6.4 25.6-19.2 25.6-36.266667v-32c0-10.666667-6.4-23.466667-17.066666-29.866667-8.533333-6.4-19.2-8.533333-29.866667-8.533333-6.4 0-10.666667 0-14.933333 2.133333-6.4 2.133333-10.666667 4.266667-17.066667 8.533334l-12.8 6.4c-8.533333 4.266667-19.2 4.266667-27.733333-2.133334-8.533333-4.266667-14.933333-14.933333-14.933334-25.6l-2.133333-38.4c-4.266667-59.733333-8.533333-125.866667-76.8-251.733333-2.133333-4.266667-6.4-10.666667-6.4-17.066667 0-10.666667 8.533333-21.333333 23.466667-32 14.933333-12.8 19.2-17.066667 32-19.2h6.4l4.266666 4.266667c4.266667 4.266667 10.666667 14.933333 23.466667 38.4 14.933333 25.6 40.533333 36.266667 74.666667 27.733333 32-8.533333 59.733333-32 59.733333-53.333333 0-14.933333-4.266667-34.133333-8.533333-53.333333-8.533333-36.266667-12.8-61.866667-8.533334-74.666667 2.133333-12.8 10.666667-23.466667 14.933334-29.866667 6.4-8.533333 12.8-14.933333 12.8-23.466666v-6.4c-2.133333-23.466667-68.266667-76.8-145.066667-113.066667-17.066667-8.533333-34.133333-12.8-51.2-12.8-46.933333 0-100.266667 32-136.533333 85.333333-27.733333 40.533333-44.8 72.533333-61.866667 102.4l-10.666667 14.933334c-4.266667 6.4-8.533333 12.8-10.666666 21.333333-4.266667 6.4-8.533333 14.933333-10.666667 21.333333l-4.266667 6.4-8.533333-2.133333c-19.2-4.266667-27.733333-8.533333-76.8-6.4-64 2.133333-104.533333 21.333333-123.733333 32-2.133333 2.133333-4.266667 2.133333-8.533334 2.133333-14.933333-2.133333-38.4-4.266667-66.133333-4.266666-64 0-179.2 8.533333-211.2 72.533333-4.266667 8.533333-4.266667 10.666667-10.666667 23.466667-6.4 17.066667-10.666667 38.4 6.4 51.2 44.8 46.933333 81.066667 70.4 104.533334 66.133333 8.533333 2.133333 12.8-6.4 14.933333-10.666667 2.133333-2.133333 38.4-83.2 61.866667-78.933333 2.133333 0 10.666667 2.133333 12.8 12.8 2.133333 17.066667-6.4 40.533333-17.066667 74.666667-12.8 40.533333-32 98.133333-38.4 166.4 0 8.533333-6.4 17.066667-12.8 21.333333-6.4 4.266667-14.933333 6.4-23.466667 6.4l-51.2-8.533333c-6.4-4.266667-10.666667-4.266667-17.066666-4.266667z m418.133333 59.733333c-57.6 0-113.066667-2.133333-168.533333-8.533333-10.666667-2.133333-19.2-8.533333-23.466667-17.066667-4.266667-10.666667-4.266667-21.333333 2.133333-29.866666 53.333333-81.066667 125.866667-125.866667 200.533334-125.866667s147.2 44.8 198.4 123.733333c6.4 8.533333 6.4 19.2 2.133333 29.866667-4.266667 10.666667-12.8 17.066667-23.466667 17.066667-61.866667 6.4-123.733333 10.666667-187.733333 10.666666z m10.666667-162.133333c-68.266667 0-134.4 42.666667-183.466667 117.333333-2.133333 4.266667-2.133333 8.533333 0 8.533334 0 2.133333 2.133333 4.266667 6.4 4.266666 53.333333 6.4 108.8 8.533333 164.266667 8.533334v10.666666-10.666666c61.866667 0 123.733333-4.266667 183.466666-10.666667 4.266667 0 6.4-4.266667 6.4-6.4 0-2.133333 2.133333-4.266667 0-8.533333-44.8-70.4-110.933333-113.066667-177.066666-113.066667z" fill="#5C545D" p-id="11043"></path><path d="M864 262.4m-19.2 0a19.2 19.2 0 1 0 38.4 0 19.2 19.2 0 1 0-38.4 0Z" fill="#5C545D" p-id="11044"></path><path d="M322.133333 441.6c0 55.466667 44.8 100.266667 100.266667 100.266667s100.266667-44.8 100.266667-100.266667v-40.533333c0-10.666667-2.133333-19.2-4.266667-29.866667-10.666667-2.133333-23.466667-4.266667-49.066667-4.266667h-23.466666c-61.866667 2.133333-102.4 19.2-123.733334 29.866667v44.8z" fill="#A1E5E0" p-id="11045"></path><path d="M460.8 514.133333c-61.866667 0-110.933333-49.066667-110.933333-110.933333v-49.066667l6.4-4.266666c25.6-12.8 68.266667-29.866667 128-32 44.8-2.133333 59.733333 0 74.666666 4.266666l6.4 2.133334 2.133334 6.4c4.266667 10.666667 6.4 21.333333 6.4 32v40.533333c-2.133333 59.733333-51.2 110.933333-113.066667 110.933333z m-89.6-149.333333v36.266667c0 49.066667 40.533333 89.6 89.6 89.6s89.6-40.533333 89.6-89.6V362.666667c0-6.4 0-12.8-2.133333-21.333334-12.8-2.133333-27.733333-4.266667-64-2.133333-51.2 0-87.466667 14.933333-113.066667 25.6zM531.2 98.133333c4.266667-12.8-4.266667-27.733333-17.066667-32l-121.6-12.8c-12.8-4.266667-27.733333 4.266667-29.866666 17.066667l-32 110.933333c-4.266667-4.266667-8.533333-8.533333-17.066667-10.666666-17.066667-4.266667-36.266667 4.266667-40.533333 21.333333-4.266667 17.066667 4.266667 36.266667 21.333333 40.533333 17.066667 4.266667 36.266667-4.266667 40.533333-21.333333l38.4-134.4c2.133333-8.533333 14.933333-10.666667 14.933334-10.666667l121.6 12.8c6.4 2.133333 8.533333 8.533333 6.4 12.8l-29.866667 106.666667c-4.266667-2.133333-8.533333-6.4-17.066667-8.533333-17.066667-4.266667-36.266667 4.266667-40.533333 21.333333-4.266667 17.066667 4.266667 36.266667 21.333333 40.533333 17.066667 4.266667 36.266667-4.266667 40.533334-21.333333l40.533333-132.266667z m0 0" fill="#5C545D" p-id="11046"></path></svg>