<svg viewBox="0 0 104 86" xmlns="http://www.w3.org/2000/svg" xmlns:xlink="http://www.w3.org/1999/xlink" width="104.000000" height="86.000000" fill="#currentColor"  >
	<path id="oi" d="M73.3115 69.8225C70.9848 72.867 68.3515 75.5089 65.4115 77.7483C63.5219 79.1876 61.5056 80.4605 59.3626 81.5672C56.425 83.0842 53.3952 84.2119 50.2734 84.9501C47.3139 85.65 44.2716 86 41.1465 86C38.3371 86 35.5884 85.7142 32.9006 85.1427Q28.8369 84.2785 24.9585 82.5435Q22.1825 81.3017 19.6489 79.681L19.648 79.6804L19.6478 79.6803C16.8327 77.8793 14.242 75.7275 11.8758 73.2248C10.3084 71.567 8.88931 69.8079 7.61864 67.9474Q4.96166 64.0572 3.16967 59.5762C2.30864 57.4231 1.62303 55.2299 1.11284 52.9967Q0 48.1255 0 43Q0 37.8752 1.11254 33.0046L1.11273 33.0038L1.11278 33.0036L1.11289 33.0031L1.11292 33.0029L1.11295 33.0028Q1.87822 29.6532 3.16967 26.4238Q4.96162 21.9429 7.61852 18.0527L7.61853 18.0527L7.61857 18.0527C8.88926 16.1921 10.3083 14.433 11.8758 12.7752Q15.4251 9.02115 19.6479 6.31971C21.3372 5.23895 23.1074 4.28453 24.9585 3.45647C27.5441 2.29978 30.1915 1.4334 32.9006 0.857332Q36.9324 0 41.1465 0Q45.834 0 50.2732 1.0498L50.2733 1.04982L50.2734 1.04984Q54.9561 2.15725 59.3626 4.43281C61.5055 5.53944 63.5218 6.81239 65.4114 8.25164L65.4134 8.25314Q69.8223 11.6117 73.3115 16.1775C76.3718 20.182 75.63 25.733 71.6255 28.7933C67.621 31.8536 62.07 31.1117 59.0097 27.1072C57.4993 25.1308 55.7748 23.457 53.8363 22.0859C52.9683 21.472 52.0573 20.9187 51.1035 20.4261C49.461 19.578 47.7672 18.9522 46.0219 18.5488C44.4391 18.1829 42.8139 18 41.1465 18C39.618 18 38.1223 18.155 36.6595 18.4651C35.1755 18.7796 33.7252 19.2537 32.3088 19.8873C31.5398 20.2313 30.7945 20.6157 30.073 21.0404Q27.2762 22.6868 24.9552 25.1416C24.1722 25.9697 23.4523 26.843 22.7955 27.7614C21.6238 29.3998 20.6529 31.1818 19.8828 33.1075C19.4494 34.1913 19.0908 35.2939 18.8071 36.4156Q18 39.6057 18 43C18 45.2629 18.269 47.4578 18.8071 49.5846C19.0909 50.7062 19.4494 51.8088 19.8828 52.8925C20.6529 54.8182 21.6238 56.6003 22.7956 58.2387C23.4524 59.1571 24.1722 60.0303 24.9552 60.8584C26.5025 62.4949 28.2085 63.862 30.073 64.9596C30.7945 65.3843 31.5398 65.7687 32.3088 66.1127C33.7252 66.7463 35.1754 67.2204 36.6594 67.5349C38.1223 67.845 39.618 68 41.1465 68C42.814 68 44.4391 67.8171 46.022 67.4512C47.7672 67.0478 49.4611 66.422 51.1035 65.5739C52.0573 65.0813 52.9682 64.528 53.8362 63.9141C55.7748 62.543 57.4993 60.8692 59.0097 58.8928C62.07 54.8883 67.6209 54.1464 71.6255 57.2067C75.63 60.267 76.3718 65.818 73.3115 69.8225ZM96.5 3C92.3579 3 89 6.35786 89 10.5L89 74.5C89 78.6421 92.3579 82 96.5 82C100.642 82 104 78.6421 104 74.5L104 10.5C104 6.35786 100.642 3 96.5 3ZM66.9859 40.5074L75.1216 30.2963C77.4802 27.336 82.25 29.0038 82.25 32.7889L82.25 53.2111C82.25 56.9962 77.4802 58.664 75.1216 55.7037L66.9859 45.4926C65.8239 44.034 65.8239 41.966 66.9859 40.5074Z" fill-rule="evenodd" />
</svg>
